# xmcd
#
# Track frame offsets:
#	150
#	20345
#	37980
#	57352
#	76600
#	92075
#	109900
#	129697
#	148797
#	174352
#	194005
#	219327
#	238492
#	260215
#	283875
#	304132
#
# Disc length: 4323
#
# Revision: 1
# Processed by: cddbd v1.5.1PL0 Copyright (c) Steve Scherf et al.
# Submitted via: MusicManager v6.0.0.0
# Normalized: r0:DSETVAR1
#
DISCID=f010e110
DTITLE=Various Artist - In Ya Ear Winter 1996 Sampler
DYEAR=1996
DGENRE=blues
TTITLE0=Total - No One Else
TTITLE1=Kawz - Ain't No Love and Happiness
TTITLE2=Celly Cel - Remember Where You Came From
TTITLE3=Mystical - Out That Boot Camp Clicc
TTITLE4=Jamal - Keep It Real
TTITLE5=Goodie Mob - Soul Food
TTITLE6=Deborah Cox - Who Do U Love
TTITLE7=Chantay Savage - I Will Survive
TTITLE8=Phyllis Hyman - I'm Truly Yours
TTITLE9=The Tony Rich Project - Nobody Knows
TTITLE10=A Few Good Men - Have I Never
TTITLE11=The Rosa Parks Tribute Singers - Something Inside So Strong
TTITLE12=Phyllis Hyman - Back to Paradise
TTITLE13=Brooklyn Funk Essentials - Bop Hop
TTITLE14=Alex Bugnon - Thighs High
TTITLE15=Mr. Malik - Malik Goes In
EXTD=
EXTT0=
EXTT1=
EXTT2=
EXTT3=
EXTT4=
EXTT5=
EXTT6=
EXTT7=
EXTT8=
EXTT9=
EXTT10=
EXTT11=
EXTT12=
EXTT13=
EXTT14=
EXTT15=
PLAYORDER=
